<svg width="20" height="24" viewBox="0 0 20 24" fill="none" xmlns="http://www.w3.org/2000/svg">
<path d="M13.25 9.75C13.25 10.6783 12.8813 11.5685 12.2249 12.2249C11.5685 12.8813 10.6783 13.25 9.75 13.25C8.82174 13.25 7.9315 12.8813 7.27513 12.2249C6.61875 11.5685 6.25 10.6783 6.25 9.75C6.25 8.82174 6.61875 7.9315 7.27513 7.27513C7.9315 6.61875 8.82174 6.25 9.75 6.25C10.6783 6.25 11.5685 6.61875 12.2249 7.27513C12.8813 7.9315 13.25 8.82174 13.25 9.75V9.75Z" stroke="white" stroke-width="1.5" stroke-linecap="round" stroke-linejoin="round"/>
<path d="M18.5 9.75C18.5 18.0823 9.75 22.875 9.75 22.875C9.75 22.875 1 18.0823 1 9.75C1 7.42936 1.92187 5.20376 3.56282 3.56282C5.20376 1.92187 7.42936 1 9.75 1C12.0706 1 14.2962 1.92187 15.9372 3.56282C17.5781 5.20376 18.5 7.42936 18.5 9.75V9.75Z" stroke="white" stroke-width="1.5" stroke-linecap="round" stroke-linejoin="round"/>
</svg>
