<svg width="154" height="154" viewBox="0 0 154 154" fill="none" xmlns="http://www.w3.org/2000/svg">
<path d="M34.995 34.995H15V15H34.995V34.995ZM18.9912 31.0037H31.0037V18.9912H18.9912V31.0037Z" fill="#198754"/>
<path d="M139 34.995H119.005V15H139V34.995ZM122.996 31.0037H134.989V18.9912H122.996V31.0037Z" fill="#198754"/>
<path d="M86.9975 34.995H67.0025V15H86.9975V34.995ZM70.9937 31.0037H83.0062V18.9912H70.9937V31.0037Z" fill="#198754"/>
<path d="M34.995 139H15V119.005H34.995V139ZM18.9912 135.009H31.0037V122.996H18.9912V135.009Z" fill="#198754"/>
<path d="M34.995 86.9975H15V67.0025H34.995V86.9975ZM18.9912 83.0062H31.0037V70.9937H18.9912V83.0062Z" fill="#198754"/>
<path d="M139 86.9975H119.005V67.0025H139V86.9975ZM122.996 83.0062H134.989V70.9937H122.996V83.0062Z" fill="#198754"/>
<path d="M139 139H119.005V119.005H139V139ZM122.996 135.009H134.989V122.996H122.996V135.009Z" fill="#198754"/>
<path d="M86.9975 139H67.0025V119.005H86.9975V139ZM70.9937 135.009H83.0062V122.996H70.9937V135.009Z" fill="#198754"/>
<path d="M68.9981 23.0019H32.9994V26.9931H68.9981V23.0019Z" fill="#198754"/>
<path d="M121.001 23.0019H85.0019V26.9931H121.001V23.0019Z" fill="#198754"/>
<path d="M68.9981 127.007H32.9994V130.998H68.9981V127.007Z" fill="#198754"/>
<path d="M121.001 127.007H85.0019V130.998H121.001V127.007Z" fill="#198754"/>
<path d="M130.998 32.9994H127.007V68.9981H130.998V32.9994Z" fill="#198754"/>
<path d="M130.998 85.0019H127.007V121.001H130.998V85.0019Z" fill="#198754"/>
<path d="M26.9931 32.9994H23.0019V68.9981H26.9931V32.9994Z" fill="#198754"/>
<path d="M26.9931 85.0019H23.0019V121.001H26.9931V85.0019Z" fill="#198754"/>
<path d="M77 118.753L53.75 53.75L118.753 77L88.625 88.625L77 118.753ZM60.2987 60.2987L77 107.244L85.3894 85.4475L107.244 77L60.2987 60.2987Z" fill="#198754"/>
<path d="M60.9963 39.0056H57.005V47.0075H60.9963V39.0056Z" fill="#198754"/>
<path d="M46.2702 43.4523L43.448 46.2745L49.1062 51.9327L51.9284 49.1104L46.2702 43.4523Z" fill="#198754"/>
<path d="M47.0075 57.005H39.0056V60.9963H47.0075V57.005Z" fill="#198754"/>
<path d="M49.1042 66.0666L43.446 71.7248L46.2683 74.5471L51.9265 68.8889L49.1042 66.0666Z" fill="#198754"/>
<path d="M60.9963 70.9937H57.005V78.9956H60.9963V70.9937Z" fill="#198754"/>
<path d="M78.9956 57.005H70.9937V60.9963H78.9956V57.005Z" fill="#198754"/>
<path d="M71.7205 43.4542L66.0623 49.1124L68.8846 51.9346L74.5428 46.2764L71.7205 43.4542Z" fill="#198754"/>
</svg>
