<svg width="154" height="154" viewBox="0 0 154 154" fill="none" xmlns="http://www.w3.org/2000/svg">
<path d="M129.003 113.013H24.9975C22.3476 113.008 19.8076 111.953 17.9339 110.079C16.0601 108.205 15.0051 105.665 15 103.014V34.9989C15.0051 32.3486 16.0601 29.8083 17.9339 27.9343C19.8076 26.0602 22.3476 25.0051 24.9975 25H129.003C131.652 25.0051 134.192 26.0602 136.066 27.9343C137.94 29.8083 138.995 32.3486 139 34.9989V103.014C138.995 105.665 137.94 108.205 136.066 110.079C134.192 111.953 131.652 113.008 129.003 113.013ZM24.9975 28.9918C23.4045 28.9918 21.8768 29.6247 20.7504 30.7512C19.624 31.8778 18.9912 33.4057 18.9912 34.9989V103.014C18.9912 103.802 19.1467 104.583 19.4488 105.31C19.7509 106.038 20.1936 106.699 20.7516 107.255C21.3096 107.811 21.9719 108.252 22.7005 108.552C23.4291 108.852 24.2097 109.005 24.9975 109.002H129.003C129.79 109.005 130.571 108.852 131.3 108.552C132.028 108.252 132.69 107.811 133.248 107.255C133.806 106.699 134.249 106.038 134.551 105.31C134.853 104.583 135.009 103.802 135.009 103.014V34.9989C135.009 33.4057 134.376 31.8778 133.25 30.7512C132.123 29.6247 130.595 28.9918 129.003 28.9918H24.9975Z" fill="#198754"/>
<path d="M52.9944 111.017H49.0031V127.023H52.9944V111.017Z" fill="#198754"/>
<path d="M104.997 111.017H101.006V127.023H104.997V111.017Z" fill="#198754"/>
<path d="M108.988 125.008H44.9925V129H108.988V125.008Z" fill="#198754"/>
<path d="M137.004 97.0071H16.9957V100.999H137.004V97.0071Z" fill="#198754"/>
<path d="M76.9999 85.0707C72.6484 85.0746 68.3934 83.7882 64.7726 81.3743C61.1518 78.9604 58.3277 75.5272 56.6572 71.5086C54.9866 67.4899 54.5446 63.0662 55.387 58.7965C56.2294 54.5267 58.3183 50.6024 61.3899 47.5196C64.4614 44.4368 68.3778 42.3338 72.644 41.4763C76.9102 40.6188 81.3348 41.0453 85.3587 42.7019C89.3827 44.3585 92.8253 47.1709 95.2516 50.7837C97.678 54.3965 98.9791 58.6475 98.9906 62.9996C98.9957 65.8929 98.4309 68.7589 97.3285 71.434C96.2261 74.109 94.6077 76.5407 92.5657 78.5902C90.5237 80.6397 88.0981 82.2669 85.4273 83.3788C82.7565 84.4907 79.8929 85.0657 76.9999 85.0707ZM76.9999 45.0559C73.44 45.0559 69.96 46.1117 67 48.0898C64.04 50.0678 61.733 52.8793 60.3707 56.1687C59.0084 59.4581 58.6519 63.0777 59.3464 66.5697C60.0409 70.0617 61.7552 73.2694 64.2725 75.787C66.7897 78.3046 69.9969 80.0191 73.4884 80.7137C76.98 81.4083 80.5991 81.0518 83.888 79.6893C87.177 78.3268 89.9881 76.0194 91.9659 73.059C93.9437 70.0986 94.9993 66.6182 94.9993 63.0577C95.0044 60.6895 94.5427 58.3435 93.6407 56.1539C92.7387 53.9643 91.414 51.9739 89.7423 50.2966C88.0707 48.6193 86.0849 47.288 83.8984 46.3788C81.712 45.4696 79.3678 45.0003 76.9999 44.9978V45.0559Z" fill="#198754"/>
<path d="M50.9987 85.0708C46.6481 85.0707 42.395 83.7812 38.7767 81.3649C35.1585 78.9486 32.3374 75.5141 30.6698 71.4951C29.0022 67.4762 28.5629 63.0531 29.4075 58.7846C30.2521 54.5161 32.3426 50.5936 35.4149 47.5128C38.4872 44.4319 42.4036 42.3308 46.6693 41.4748C50.935 40.6189 55.3586 41.0466 59.3814 42.7038C63.4042 44.361 66.8457 47.1734 69.2712 50.7857C71.6966 54.3981 72.9973 58.6484 73.0087 62.9996C73.0138 65.8946 72.4484 68.7622 71.3448 71.4385C70.2413 74.1148 68.6211 76.5473 66.5771 78.5971C64.533 80.6468 62.105 82.2736 59.432 83.3844C56.759 84.4952 53.8933 85.0682 50.9987 85.0708ZM50.9987 45.0559C47.4388 45.0559 43.9588 46.1117 40.9988 48.0898C38.0388 50.0678 35.7318 52.8793 34.3695 56.1688C33.0072 59.4582 32.6507 63.0777 33.3452 66.5697C34.0397 70.0617 35.754 73.2694 38.2713 75.787C40.7885 78.3046 43.9957 80.0191 47.4872 80.7137C50.9788 81.4083 54.5979 81.0518 57.8868 79.6893C61.1758 78.3268 63.9869 76.0194 65.9647 73.059C67.9425 70.0986 68.9981 66.6182 68.9981 63.0578C69.0032 60.6895 68.5415 58.3436 67.6395 56.1539C66.7375 53.9643 65.4128 51.9739 63.7411 50.2966C62.0695 48.6194 60.0837 47.288 57.8972 46.3788C55.7108 45.4696 53.3666 45.0003 50.9987 44.9978V45.0559Z" fill="#198754"/>
<path d="M103.001 85.0707C98.6498 85.0746 94.3948 83.7882 90.774 81.3743C87.1532 78.9604 84.3291 75.5272 82.6585 71.5086C80.988 67.4899 80.5459 63.0662 81.3883 58.7965C82.2307 54.5267 84.3196 50.6024 87.3912 47.5196C90.4628 44.4368 94.3791 42.3338 98.6453 41.4763C102.912 40.6188 107.336 41.0453 111.36 42.7019C115.384 44.3585 118.827 47.1709 121.253 50.7837C123.679 54.3965 124.98 58.6475 124.992 62.9996C124.997 68.8414 122.684 74.4465 118.561 78.5846C114.438 82.7226 108.842 85.0553 103.001 85.0707ZM103.001 45.0559C99.4413 45.0559 95.9613 46.1117 93.0014 48.0898C90.0414 50.0678 87.7344 52.8793 86.372 56.1687C85.0097 59.4581 84.6533 63.0777 85.3478 66.5697C86.0423 70.0617 87.7565 73.2694 90.2738 75.787C92.7911 78.3046 95.9982 80.0191 99.4898 80.7137C102.981 81.4083 106.6 81.0518 109.889 79.6893C113.178 78.3268 115.989 76.0194 117.967 73.059C119.945 70.0986 121.001 66.6182 121.001 63.0577C121.006 60.6895 120.544 58.3435 119.642 56.1539C118.74 53.9643 117.415 51.9739 115.744 50.2966C114.072 48.6193 112.086 47.288 109.9 46.3788C107.713 45.4696 105.369 45.0003 103.001 44.9978V45.0559Z" fill="#198754"/>
</svg>
