<svg width="154" height="154" viewBox="0 0 154 154" fill="none" xmlns="http://www.w3.org/2000/svg">
<path d="M139 127H15V27H139V127ZM18.9912 123.009H135.009V30.9915H18.9912V123.009Z" fill="#198754"/>
<path d="M93.0037 79.0054H23.0019V35.0023H93.0037V79.0054ZM26.9931 74.9946H88.9931V38.9938H26.9931V74.9946Z" fill="#198754"/>
<path d="M130.998 35.0023H96.995V38.9938H130.998V35.0023Z" fill="#198754"/>
<path d="M130.998 43.0047H96.995V46.9961H130.998V43.0047Z" fill="#198754"/>
<path d="M130.998 51.007H96.995V54.9984H130.998V51.007Z" fill="#198754"/>
<path d="M130.998 59.0093H96.995V63.0008H130.998V59.0093Z" fill="#198754"/>
<path d="M130.998 67.0116H96.995V71.0031H130.998V67.0116Z" fill="#198754"/>
<path d="M130.998 74.9946H96.995V78.986H130.998V74.9946Z" fill="#198754"/>
<path d="M57.005 118.998H23.0019V82.9969H57.005V118.998ZM26.9931 115.006H52.9944V87.0659H26.9931V115.006Z" fill="#198754"/>
<path d="M93.0037 118.998H60.9963V82.9969H93.0037V118.998ZM65.0069 115.006H88.9931V87.0659H65.0069V115.006Z" fill="#198754"/>
<path d="M130.998 118.998H96.995V82.9969H130.998V118.998ZM101.006 115.006H127.007V87.0659H101.006V115.006Z" fill="#198754"/>
<path d="M57.005 71.0031C54.2345 71.0031 51.5261 70.1815 49.2225 68.6422C46.9189 67.1029 45.1234 64.915 44.0632 62.3552C43.0029 59.7954 42.7255 56.9786 43.266 54.2612C43.8065 51.5437 45.1407 49.0476 47.0998 47.0884C49.0588 45.1292 51.5548 43.795 54.2722 43.2545C56.9895 42.7139 59.806 42.9913 62.3657 44.0516C64.9253 45.1119 67.1131 46.9075 68.6523 49.2113C70.1916 51.515 71.0131 54.2235 71.0131 56.9942C71.0131 60.7096 69.5373 64.2728 66.9102 66.9C64.2832 69.5272 60.7202 71.0031 57.005 71.0031ZM57.005 46.9961C55.0277 46.9961 53.0948 47.5825 51.4507 48.6811C49.8066 49.7797 48.5252 51.3412 47.7685 53.1681C47.0118 54.995 46.8138 57.0053 47.1996 58.9447C47.5854 60.8841 48.5375 62.6656 49.9357 64.0639C51.3339 65.4621 53.1153 66.4144 55.0546 66.8001C56.9939 67.1859 59.0041 66.9879 60.8309 66.2312C62.6577 65.4745 64.2191 64.193 65.3176 62.5488C66.4162 60.9046 67.0025 58.9716 67.0025 56.9942C66.9974 54.3441 65.9424 51.804 64.0686 49.9301C62.1949 48.0563 59.6549 47.0012 57.005 46.9961Z" fill="#198754"/>
</svg>
